<mxfile host="app.diagrams.net" agent="Mozilla/5.0 (Macintosh; Intel Mac OS X 10_15_7) AppleWebKit/537.36 (KHTML, like Gecko) Chrome/129.0.0.0 Safari/537.36" version="24.7.16">
  <diagram name="Page-1" id="-H_mtQnk-PTXWXPvYvuk">
    <mxGraphModel dx="6360" dy="4847" grid="1" gridSize="10" guides="1" tooltips="1" connect="1" arrows="1" fold="1" page="1" pageScale="1" pageWidth="1169" pageHeight="827" math="0" shadow="0">
      <root>
        <mxCell id="0" />
        <mxCell id="1" parent="0" />
        <mxCell id="-3HDc4S4cJgzG00HHfBd-124" style="edgeStyle=orthogonalEdgeStyle;rounded=0;orthogonalLoop=1;jettySize=auto;html=1;entryX=0.5;entryY=1;entryDx=0;entryDy=0;" edge="1" parent="1" source="-3HDc4S4cJgzG00HHfBd-122" target="-3HDc4S4cJgzG00HHfBd-123">
          <mxGeometry relative="1" as="geometry" />
        </mxCell>
        <mxCell id="-3HDc4S4cJgzG00HHfBd-139" style="edgeStyle=orthogonalEdgeStyle;rounded=0;orthogonalLoop=1;jettySize=auto;html=1;entryX=0.5;entryY=1;entryDx=0;entryDy=0;" edge="1" parent="1" source="-3HDc4S4cJgzG00HHfBd-122" target="-3HDc4S4cJgzG00HHfBd-132">
          <mxGeometry relative="1" as="geometry">
            <Array as="points">
              <mxPoint x="2675" y="2460" />
              <mxPoint x="2935" y="2460" />
            </Array>
          </mxGeometry>
        </mxCell>
        <mxCell id="-3HDc4S4cJgzG00HHfBd-122" value="Основной сервер" style="rounded=0;whiteSpace=wrap;html=1;verticalAlign=top;align=left;" vertex="1" parent="1">
          <mxGeometry x="1900" y="2530" width="1550" height="1840" as="geometry" />
        </mxCell>
        <mxCell id="-3HDc4S4cJgzG00HHfBd-57" style="edgeStyle=orthogonalEdgeStyle;rounded=0;orthogonalLoop=1;jettySize=auto;html=1;" edge="1" parent="1" source="-3HDc4S4cJgzG00HHfBd-24">
          <mxGeometry relative="1" as="geometry">
            <mxPoint x="200" y="2720" as="targetPoint" />
            <Array as="points">
              <mxPoint x="200" y="2721" />
            </Array>
          </mxGeometry>
        </mxCell>
        <mxCell id="-3HDc4S4cJgzG00HHfBd-60" value="регистрация" style="edgeLabel;html=1;align=center;verticalAlign=middle;resizable=0;points=[];" vertex="1" connectable="0" parent="-3HDc4S4cJgzG00HHfBd-57">
          <mxGeometry x="0.4013" y="2" relative="1" as="geometry">
            <mxPoint x="-1" y="-13" as="offset" />
          </mxGeometry>
        </mxCell>
        <mxCell id="-3HDc4S4cJgzG00HHfBd-24" value="service 1" style="rounded=0;whiteSpace=wrap;html=1;align=left;verticalAlign=top;" vertex="1" parent="1">
          <mxGeometry x="675" y="2350" width="860" height="800" as="geometry" />
        </mxCell>
        <mxCell id="Ax7DGf_BvLTX2LrvLUgB-31" value="replicaset" style="whiteSpace=wrap;html=1;aspect=fixed;verticalAlign=top;align=left;" parent="1" vertex="1">
          <mxGeometry x="370" y="690" width="260" height="260" as="geometry" />
        </mxCell>
        <mxCell id="Ax7DGf_BvLTX2LrvLUgB-30" value="replicaset" style="whiteSpace=wrap;html=1;aspect=fixed;align=left;verticalAlign=top;" parent="1" vertex="1">
          <mxGeometry x="370" y="970" width="260" height="260" as="geometry" />
        </mxCell>
        <mxCell id="zA23MoTUsTF4_91t8viU-2" value="MongoS&lt;div&gt;router&lt;/div&gt;" style="shape=cylinder3;whiteSpace=wrap;html=1;boundedLbl=1;backgroundOutline=1;size=15;" parent="1" vertex="1">
          <mxGeometry x="220" y="254" width="60" height="80" as="geometry" />
        </mxCell>
        <mxCell id="zA23MoTUsTF4_91t8viU-3" value="pymongo-api" style="rounded=1;whiteSpace=wrap;html=1;" parent="1" vertex="1">
          <mxGeometry x="20" y="264" width="120" height="60" as="geometry" />
        </mxCell>
        <mxCell id="zA23MoTUsTF4_91t8viU-4" style="edgeStyle=orthogonalEdgeStyle;rounded=0;orthogonalLoop=1;jettySize=auto;html=1;exitX=1;exitY=0.5;exitDx=0;exitDy=0;entryX=0;entryY=0.5;entryDx=0;entryDy=0;entryPerimeter=0;" parent="1" source="zA23MoTUsTF4_91t8viU-3" target="zA23MoTUsTF4_91t8viU-2" edge="1">
          <mxGeometry relative="1" as="geometry" />
        </mxCell>
        <mxCell id="kw30uZrXg7Gn5pRpgXtt-1" value="MongoDB Shard 1" style="shape=cylinder3;whiteSpace=wrap;html=1;boundedLbl=1;backgroundOutline=1;size=15;" parent="1" vertex="1">
          <mxGeometry x="420" y="194" width="90" height="100" as="geometry" />
        </mxCell>
        <mxCell id="Ax7DGf_BvLTX2LrvLUgB-1" value="MongoDB Shard 2" style="shape=cylinder3;whiteSpace=wrap;html=1;boundedLbl=1;backgroundOutline=1;size=15;" parent="1" vertex="1">
          <mxGeometry x="420" y="314" width="90" height="100" as="geometry" />
        </mxCell>
        <mxCell id="Ax7DGf_BvLTX2LrvLUgB-2" value="Config Server" style="shape=cylinder3;whiteSpace=wrap;html=1;boundedLbl=1;backgroundOutline=1;size=15;" parent="1" vertex="1">
          <mxGeometry x="410" y="24" width="90" height="100" as="geometry" />
        </mxCell>
        <mxCell id="Ax7DGf_BvLTX2LrvLUgB-4" style="edgeStyle=orthogonalEdgeStyle;rounded=0;orthogonalLoop=1;jettySize=auto;html=1;entryX=0;entryY=0.5;entryDx=0;entryDy=0;entryPerimeter=0;" parent="1" source="zA23MoTUsTF4_91t8viU-2" target="kw30uZrXg7Gn5pRpgXtt-1" edge="1">
          <mxGeometry relative="1" as="geometry" />
        </mxCell>
        <mxCell id="Ax7DGf_BvLTX2LrvLUgB-5" style="edgeStyle=orthogonalEdgeStyle;rounded=0;orthogonalLoop=1;jettySize=auto;html=1;entryX=0.006;entryY=0.585;entryDx=0;entryDy=0;entryPerimeter=0;" parent="1" source="zA23MoTUsTF4_91t8viU-2" target="Ax7DGf_BvLTX2LrvLUgB-1" edge="1">
          <mxGeometry relative="1" as="geometry" />
        </mxCell>
        <mxCell id="Ax7DGf_BvLTX2LrvLUgB-6" style="edgeStyle=orthogonalEdgeStyle;rounded=0;orthogonalLoop=1;jettySize=auto;html=1;exitX=0.5;exitY=0;exitDx=0;exitDy=0;exitPerimeter=0;entryX=0.606;entryY=1.015;entryDx=0;entryDy=0;entryPerimeter=0;" parent="1" source="kw30uZrXg7Gn5pRpgXtt-1" target="Ax7DGf_BvLTX2LrvLUgB-2" edge="1">
          <mxGeometry relative="1" as="geometry" />
        </mxCell>
        <mxCell id="Ax7DGf_BvLTX2LrvLUgB-7" style="edgeStyle=orthogonalEdgeStyle;rounded=0;orthogonalLoop=1;jettySize=auto;html=1;entryX=1;entryY=0.5;entryDx=0;entryDy=0;entryPerimeter=0;" parent="1" source="Ax7DGf_BvLTX2LrvLUgB-1" target="Ax7DGf_BvLTX2LrvLUgB-2" edge="1">
          <mxGeometry relative="1" as="geometry">
            <Array as="points">
              <mxPoint x="550" y="364" />
              <mxPoint x="550" y="74" />
            </Array>
          </mxGeometry>
        </mxCell>
        <mxCell id="Ax7DGf_BvLTX2LrvLUgB-9" style="edgeStyle=orthogonalEdgeStyle;rounded=0;orthogonalLoop=1;jettySize=auto;html=1;entryX=0;entryY=0.5;entryDx=0;entryDy=0;entryPerimeter=0;" parent="1" source="zA23MoTUsTF4_91t8viU-2" target="Ax7DGf_BvLTX2LrvLUgB-2" edge="1">
          <mxGeometry relative="1" as="geometry">
            <Array as="points">
              <mxPoint x="250" y="74" />
            </Array>
          </mxGeometry>
        </mxCell>
        <mxCell id="Ax7DGf_BvLTX2LrvLUgB-10" value="Схема 1. Шардирование mongodb" style="text;html=1;align=center;verticalAlign=middle;resizable=0;points=[];autosize=1;strokeColor=none;fillColor=none;" parent="1" vertex="1">
          <mxGeometry y="24" width="220" height="30" as="geometry" />
        </mxCell>
        <mxCell id="Ax7DGf_BvLTX2LrvLUgB-11" value="MongoS&lt;div&gt;router&lt;/div&gt;" style="shape=cylinder3;whiteSpace=wrap;html=1;boundedLbl=1;backgroundOutline=1;size=15;" parent="1" vertex="1">
          <mxGeometry x="230" y="770" width="60" height="80" as="geometry" />
        </mxCell>
        <mxCell id="Ax7DGf_BvLTX2LrvLUgB-12" value="pymongo-api" style="rounded=1;whiteSpace=wrap;html=1;" parent="1" vertex="1">
          <mxGeometry x="30" y="780" width="120" height="60" as="geometry" />
        </mxCell>
        <mxCell id="Ax7DGf_BvLTX2LrvLUgB-13" style="edgeStyle=orthogonalEdgeStyle;rounded=0;orthogonalLoop=1;jettySize=auto;html=1;exitX=1;exitY=0.5;exitDx=0;exitDy=0;entryX=0;entryY=0.5;entryDx=0;entryDy=0;entryPerimeter=0;" parent="1" source="Ax7DGf_BvLTX2LrvLUgB-12" target="Ax7DGf_BvLTX2LrvLUgB-11" edge="1">
          <mxGeometry relative="1" as="geometry" />
        </mxCell>
        <mxCell id="Ax7DGf_BvLTX2LrvLUgB-14" value="Mongod Shard 1&lt;div&gt;Master&lt;/div&gt;" style="shape=cylinder3;whiteSpace=wrap;html=1;boundedLbl=1;backgroundOutline=1;size=15;verticalAlign=top;" parent="1" vertex="1">
          <mxGeometry x="430" y="717" width="120" height="123" as="geometry" />
        </mxCell>
        <mxCell id="Ax7DGf_BvLTX2LrvLUgB-15" value="&lt;div style=&quot;&quot;&gt;&lt;span style=&quot;background-color: initial;&quot;&gt;Mongod Shard 2&lt;/span&gt;&lt;/div&gt;&lt;div style=&quot;&quot;&gt;Master&lt;br&gt;&lt;/div&gt;" style="shape=cylinder3;whiteSpace=wrap;html=1;boundedLbl=1;backgroundOutline=1;size=15;verticalAlign=top;" parent="1" vertex="1">
          <mxGeometry x="440" y="990" width="120" height="130" as="geometry" />
        </mxCell>
        <mxCell id="Ax7DGf_BvLTX2LrvLUgB-16" value="Config Server" style="shape=cylinder3;whiteSpace=wrap;html=1;boundedLbl=1;backgroundOutline=1;size=15;" parent="1" vertex="1">
          <mxGeometry x="450" y="540" width="90" height="100" as="geometry" />
        </mxCell>
        <mxCell id="Ax7DGf_BvLTX2LrvLUgB-21" style="edgeStyle=orthogonalEdgeStyle;rounded=0;orthogonalLoop=1;jettySize=auto;html=1;entryX=0;entryY=0.5;entryDx=0;entryDy=0;entryPerimeter=0;" parent="1" source="Ax7DGf_BvLTX2LrvLUgB-11" target="Ax7DGf_BvLTX2LrvLUgB-16" edge="1">
          <mxGeometry relative="1" as="geometry">
            <Array as="points">
              <mxPoint x="260" y="590" />
            </Array>
          </mxGeometry>
        </mxCell>
        <mxCell id="Ax7DGf_BvLTX2LrvLUgB-22" value="Схема 2. Шардирование + репликация mongodb" style="text;html=1;align=center;verticalAlign=middle;resizable=0;points=[];autosize=1;strokeColor=none;fillColor=none;" parent="1" vertex="1">
          <mxGeometry x="10" y="530" width="300" height="30" as="geometry" />
        </mxCell>
        <mxCell id="Ax7DGf_BvLTX2LrvLUgB-24" value="Slave" style="shape=cylinder3;whiteSpace=wrap;html=1;boundedLbl=1;backgroundOutline=1;size=15;" parent="1" vertex="1">
          <mxGeometry x="430" y="1130" width="60" height="80" as="geometry" />
        </mxCell>
        <mxCell id="Ax7DGf_BvLTX2LrvLUgB-25" value="Slave" style="shape=cylinder3;whiteSpace=wrap;html=1;boundedLbl=1;backgroundOutline=1;size=15;" parent="1" vertex="1">
          <mxGeometry x="510" y="1130" width="60" height="80" as="geometry" />
        </mxCell>
        <mxCell id="Ax7DGf_BvLTX2LrvLUgB-27" value="Slave" style="shape=cylinder3;whiteSpace=wrap;html=1;boundedLbl=1;backgroundOutline=1;size=15;" parent="1" vertex="1">
          <mxGeometry x="425" y="860" width="60" height="80" as="geometry" />
        </mxCell>
        <mxCell id="Ax7DGf_BvLTX2LrvLUgB-28" value="Slave" style="shape=cylinder3;whiteSpace=wrap;html=1;boundedLbl=1;backgroundOutline=1;size=15;" parent="1" vertex="1">
          <mxGeometry x="510" y="860" width="60" height="80" as="geometry" />
        </mxCell>
        <mxCell id="Ax7DGf_BvLTX2LrvLUgB-32" style="edgeStyle=orthogonalEdgeStyle;rounded=0;orthogonalLoop=1;jettySize=auto;html=1;entryX=0;entryY=0.462;entryDx=0;entryDy=0;entryPerimeter=0;" parent="1" source="Ax7DGf_BvLTX2LrvLUgB-11" target="Ax7DGf_BvLTX2LrvLUgB-31" edge="1">
          <mxGeometry relative="1" as="geometry" />
        </mxCell>
        <mxCell id="Ax7DGf_BvLTX2LrvLUgB-33" style="edgeStyle=orthogonalEdgeStyle;rounded=0;orthogonalLoop=1;jettySize=auto;html=1;entryX=0;entryY=0.654;entryDx=0;entryDy=0;entryPerimeter=0;" parent="1" source="Ax7DGf_BvLTX2LrvLUgB-11" target="Ax7DGf_BvLTX2LrvLUgB-30" edge="1">
          <mxGeometry relative="1" as="geometry" />
        </mxCell>
        <mxCell id="Ax7DGf_BvLTX2LrvLUgB-34" style="edgeStyle=orthogonalEdgeStyle;rounded=0;orthogonalLoop=1;jettySize=auto;html=1;entryX=1;entryY=0.5;entryDx=0;entryDy=0;entryPerimeter=0;" parent="1" source="Ax7DGf_BvLTX2LrvLUgB-31" target="Ax7DGf_BvLTX2LrvLUgB-16" edge="1">
          <mxGeometry relative="1" as="geometry" />
        </mxCell>
        <mxCell id="Ax7DGf_BvLTX2LrvLUgB-36" style="edgeStyle=orthogonalEdgeStyle;rounded=0;orthogonalLoop=1;jettySize=auto;html=1;entryX=1;entryY=0.5;entryDx=0;entryDy=0;entryPerimeter=0;" parent="1" source="Ax7DGf_BvLTX2LrvLUgB-30" target="Ax7DGf_BvLTX2LrvLUgB-16" edge="1">
          <mxGeometry relative="1" as="geometry">
            <Array as="points">
              <mxPoint x="680" y="1100" />
              <mxPoint x="680" y="590" />
            </Array>
          </mxGeometry>
        </mxCell>
        <mxCell id="Ax7DGf_BvLTX2LrvLUgB-37" value="replicaset" style="whiteSpace=wrap;html=1;aspect=fixed;verticalAlign=top;align=left;" parent="1" vertex="1">
          <mxGeometry x="485" y="1530" width="260" height="260" as="geometry" />
        </mxCell>
        <mxCell id="Ax7DGf_BvLTX2LrvLUgB-38" value="replicaset" style="whiteSpace=wrap;html=1;aspect=fixed;align=left;verticalAlign=top;" parent="1" vertex="1">
          <mxGeometry x="485" y="1810" width="260" height="260" as="geometry" />
        </mxCell>
        <mxCell id="Ax7DGf_BvLTX2LrvLUgB-39" value="MongoS&lt;div&gt;router&lt;/div&gt;" style="shape=cylinder3;whiteSpace=wrap;html=1;boundedLbl=1;backgroundOutline=1;size=15;" parent="1" vertex="1">
          <mxGeometry x="340" y="1610" width="60" height="80" as="geometry" />
        </mxCell>
        <mxCell id="Ax7DGf_BvLTX2LrvLUgB-40" value="pymongo-api" style="rounded=1;whiteSpace=wrap;html=1;" parent="1" vertex="1">
          <mxGeometry x="10" y="1620" width="120" height="60" as="geometry" />
        </mxCell>
        <mxCell id="Ax7DGf_BvLTX2LrvLUgB-42" value="Mongod Shard-1-1&lt;div&gt;Master&lt;/div&gt;" style="shape=cylinder3;whiteSpace=wrap;html=1;boundedLbl=1;backgroundOutline=1;size=15;verticalAlign=top;" parent="1" vertex="1">
          <mxGeometry x="545" y="1557" width="120" height="123" as="geometry" />
        </mxCell>
        <mxCell id="Ax7DGf_BvLTX2LrvLUgB-43" value="&lt;div style=&quot;&quot;&gt;&lt;span style=&quot;background-color: initial;&quot;&gt;Mongod Shard-1-2&lt;/span&gt;&lt;/div&gt;&lt;div style=&quot;&quot;&gt;Master&lt;br&gt;&lt;/div&gt;" style="shape=cylinder3;whiteSpace=wrap;html=1;boundedLbl=1;backgroundOutline=1;size=15;verticalAlign=top;" parent="1" vertex="1">
          <mxGeometry x="555" y="1830" width="120" height="130" as="geometry" />
        </mxCell>
        <mxCell id="Ax7DGf_BvLTX2LrvLUgB-44" value="Config Server" style="shape=cylinder3;whiteSpace=wrap;html=1;boundedLbl=1;backgroundOutline=1;size=15;" parent="1" vertex="1">
          <mxGeometry x="565" y="1380" width="90" height="100" as="geometry" />
        </mxCell>
        <mxCell id="Ax7DGf_BvLTX2LrvLUgB-45" style="edgeStyle=orthogonalEdgeStyle;rounded=0;orthogonalLoop=1;jettySize=auto;html=1;entryX=0;entryY=0.5;entryDx=0;entryDy=0;entryPerimeter=0;" parent="1" target="Ax7DGf_BvLTX2LrvLUgB-44" edge="1">
          <mxGeometry relative="1" as="geometry">
            <Array as="points">
              <mxPoint x="375" y="1430" />
            </Array>
            <mxPoint x="375" y="1610" as="sourcePoint" />
          </mxGeometry>
        </mxCell>
        <mxCell id="Ax7DGf_BvLTX2LrvLUgB-46" value="Slave" style="shape=cylinder3;whiteSpace=wrap;html=1;boundedLbl=1;backgroundOutline=1;size=15;" parent="1" vertex="1">
          <mxGeometry x="545" y="1970" width="60" height="80" as="geometry" />
        </mxCell>
        <mxCell id="Ax7DGf_BvLTX2LrvLUgB-47" value="Slave" style="shape=cylinder3;whiteSpace=wrap;html=1;boundedLbl=1;backgroundOutline=1;size=15;" parent="1" vertex="1">
          <mxGeometry x="625" y="1970" width="60" height="80" as="geometry" />
        </mxCell>
        <mxCell id="Ax7DGf_BvLTX2LrvLUgB-48" value="Slave" style="shape=cylinder3;whiteSpace=wrap;html=1;boundedLbl=1;backgroundOutline=1;size=15;" parent="1" vertex="1">
          <mxGeometry x="540" y="1700" width="60" height="80" as="geometry" />
        </mxCell>
        <mxCell id="Ax7DGf_BvLTX2LrvLUgB-49" value="Slave" style="shape=cylinder3;whiteSpace=wrap;html=1;boundedLbl=1;backgroundOutline=1;size=15;" parent="1" vertex="1">
          <mxGeometry x="625" y="1700" width="60" height="80" as="geometry" />
        </mxCell>
        <mxCell id="Ax7DGf_BvLTX2LrvLUgB-50" style="edgeStyle=orthogonalEdgeStyle;rounded=0;orthogonalLoop=1;jettySize=auto;html=1;entryX=0;entryY=0.462;entryDx=0;entryDy=0;entryPerimeter=0;" parent="1" target="Ax7DGf_BvLTX2LrvLUgB-37" edge="1">
          <mxGeometry relative="1" as="geometry">
            <mxPoint x="405" y="1650.0666666666666" as="sourcePoint" />
          </mxGeometry>
        </mxCell>
        <mxCell id="Ax7DGf_BvLTX2LrvLUgB-51" style="edgeStyle=orthogonalEdgeStyle;rounded=0;orthogonalLoop=1;jettySize=auto;html=1;entryX=0;entryY=0.654;entryDx=0;entryDy=0;entryPerimeter=0;" parent="1" target="Ax7DGf_BvLTX2LrvLUgB-38" edge="1">
          <mxGeometry relative="1" as="geometry">
            <mxPoint x="405" y="1650.0666666666666" as="sourcePoint" />
          </mxGeometry>
        </mxCell>
        <mxCell id="Ax7DGf_BvLTX2LrvLUgB-52" style="edgeStyle=orthogonalEdgeStyle;rounded=0;orthogonalLoop=1;jettySize=auto;html=1;entryX=1;entryY=0.5;entryDx=0;entryDy=0;entryPerimeter=0;" parent="1" source="Ax7DGf_BvLTX2LrvLUgB-37" target="Ax7DGf_BvLTX2LrvLUgB-44" edge="1">
          <mxGeometry relative="1" as="geometry" />
        </mxCell>
        <mxCell id="Ax7DGf_BvLTX2LrvLUgB-53" style="edgeStyle=orthogonalEdgeStyle;rounded=0;orthogonalLoop=1;jettySize=auto;html=1;entryX=1;entryY=0.5;entryDx=0;entryDy=0;entryPerimeter=0;" parent="1" source="Ax7DGf_BvLTX2LrvLUgB-38" target="Ax7DGf_BvLTX2LrvLUgB-44" edge="1">
          <mxGeometry relative="1" as="geometry">
            <Array as="points">
              <mxPoint x="795" y="1940" />
              <mxPoint x="795" y="1430" />
            </Array>
          </mxGeometry>
        </mxCell>
        <mxCell id="Ax7DGf_BvLTX2LrvLUgB-54" value="Схема 3. Шардирование + репликация + кэш" style="text;html=1;align=center;verticalAlign=middle;resizable=0;points=[];autosize=1;strokeColor=none;fillColor=none;" parent="1" vertex="1">
          <mxGeometry x="30" y="1350" width="280" height="30" as="geometry" />
        </mxCell>
        <mxCell id="Ax7DGf_BvLTX2LrvLUgB-56" value="Redis" style="shape=cylinder3;whiteSpace=wrap;html=1;boundedLbl=1;backgroundOutline=1;size=15;" parent="1" vertex="1">
          <mxGeometry x="210" y="1610" width="60" height="80" as="geometry" />
        </mxCell>
        <mxCell id="Ax7DGf_BvLTX2LrvLUgB-57" style="edgeStyle=orthogonalEdgeStyle;rounded=0;orthogonalLoop=1;jettySize=auto;html=1;entryX=0;entryY=0.5;entryDx=0;entryDy=0;entryPerimeter=0;" parent="1" source="Ax7DGf_BvLTX2LrvLUgB-40" target="Ax7DGf_BvLTX2LrvLUgB-56" edge="1">
          <mxGeometry relative="1" as="geometry" />
        </mxCell>
        <mxCell id="Ax7DGf_BvLTX2LrvLUgB-58" style="edgeStyle=orthogonalEdgeStyle;rounded=0;orthogonalLoop=1;jettySize=auto;html=1;entryX=0;entryY=0.5;entryDx=0;entryDy=0;entryPerimeter=0;" parent="1" source="Ax7DGf_BvLTX2LrvLUgB-56" target="Ax7DGf_BvLTX2LrvLUgB-39" edge="1">
          <mxGeometry relative="1" as="geometry" />
        </mxCell>
        <mxCell id="AWp5B-75EesshQUVPhZa-12" value="Slave" style="shape=cylinder3;whiteSpace=wrap;html=1;boundedLbl=1;backgroundOutline=1;size=15;" parent="1" vertex="1">
          <mxGeometry x="550" y="1710" width="60" height="80" as="geometry" />
        </mxCell>
        <mxCell id="AWp5B-75EesshQUVPhZa-13" value="Slave" style="shape=cylinder3;whiteSpace=wrap;html=1;boundedLbl=1;backgroundOutline=1;size=15;" parent="1" vertex="1">
          <mxGeometry x="635" y="1710" width="60" height="80" as="geometry" />
        </mxCell>
        <mxCell id="-3HDc4S4cJgzG00HHfBd-2" value="replicaset" style="whiteSpace=wrap;html=1;aspect=fixed;verticalAlign=top;align=left;" vertex="1" parent="1">
          <mxGeometry x="1175" y="2520" width="260" height="260" as="geometry" />
        </mxCell>
        <mxCell id="-3HDc4S4cJgzG00HHfBd-3" value="replicaset" style="whiteSpace=wrap;html=1;aspect=fixed;align=left;verticalAlign=top;" vertex="1" parent="1">
          <mxGeometry x="1175" y="2800" width="260" height="260" as="geometry" />
        </mxCell>
        <mxCell id="-3HDc4S4cJgzG00HHfBd-4" value="MongoS&lt;div&gt;router&lt;/div&gt;" style="shape=cylinder3;whiteSpace=wrap;html=1;boundedLbl=1;backgroundOutline=1;size=15;" vertex="1" parent="1">
          <mxGeometry x="1030" y="2600" width="60" height="80" as="geometry" />
        </mxCell>
        <mxCell id="-3HDc4S4cJgzG00HHfBd-5" value="pymongo-api" style="rounded=1;whiteSpace=wrap;html=1;" vertex="1" parent="1">
          <mxGeometry x="700" y="2610" width="120" height="60" as="geometry" />
        </mxCell>
        <mxCell id="-3HDc4S4cJgzG00HHfBd-6" value="Mongod Shard-1-1&lt;div&gt;Master&lt;/div&gt;" style="shape=cylinder3;whiteSpace=wrap;html=1;boundedLbl=1;backgroundOutline=1;size=15;verticalAlign=top;" vertex="1" parent="1">
          <mxGeometry x="1235" y="2547" width="120" height="123" as="geometry" />
        </mxCell>
        <mxCell id="-3HDc4S4cJgzG00HHfBd-7" value="&lt;div style=&quot;&quot;&gt;&lt;span style=&quot;background-color: initial;&quot;&gt;Mongod Shard-1-2&lt;/span&gt;&lt;/div&gt;&lt;div style=&quot;&quot;&gt;Master&lt;br&gt;&lt;/div&gt;" style="shape=cylinder3;whiteSpace=wrap;html=1;boundedLbl=1;backgroundOutline=1;size=15;verticalAlign=top;" vertex="1" parent="1">
          <mxGeometry x="1245" y="2820" width="120" height="130" as="geometry" />
        </mxCell>
        <mxCell id="-3HDc4S4cJgzG00HHfBd-8" value="Config Server" style="shape=cylinder3;whiteSpace=wrap;html=1;boundedLbl=1;backgroundOutline=1;size=15;" vertex="1" parent="1">
          <mxGeometry x="1255" y="2370" width="90" height="100" as="geometry" />
        </mxCell>
        <mxCell id="-3HDc4S4cJgzG00HHfBd-9" style="edgeStyle=orthogonalEdgeStyle;rounded=0;orthogonalLoop=1;jettySize=auto;html=1;entryX=0;entryY=0.5;entryDx=0;entryDy=0;entryPerimeter=0;" edge="1" parent="1" target="-3HDc4S4cJgzG00HHfBd-8">
          <mxGeometry relative="1" as="geometry">
            <Array as="points">
              <mxPoint x="1065" y="2420" />
            </Array>
            <mxPoint x="1065" y="2600" as="sourcePoint" />
          </mxGeometry>
        </mxCell>
        <mxCell id="-3HDc4S4cJgzG00HHfBd-10" value="Slave" style="shape=cylinder3;whiteSpace=wrap;html=1;boundedLbl=1;backgroundOutline=1;size=15;" vertex="1" parent="1">
          <mxGeometry x="1235" y="2960" width="60" height="80" as="geometry" />
        </mxCell>
        <mxCell id="-3HDc4S4cJgzG00HHfBd-11" value="Slave" style="shape=cylinder3;whiteSpace=wrap;html=1;boundedLbl=1;backgroundOutline=1;size=15;" vertex="1" parent="1">
          <mxGeometry x="1315" y="2960" width="60" height="80" as="geometry" />
        </mxCell>
        <mxCell id="-3HDc4S4cJgzG00HHfBd-12" value="Slave" style="shape=cylinder3;whiteSpace=wrap;html=1;boundedLbl=1;backgroundOutline=1;size=15;" vertex="1" parent="1">
          <mxGeometry x="1230" y="2690" width="60" height="80" as="geometry" />
        </mxCell>
        <mxCell id="-3HDc4S4cJgzG00HHfBd-13" value="Slave" style="shape=cylinder3;whiteSpace=wrap;html=1;boundedLbl=1;backgroundOutline=1;size=15;" vertex="1" parent="1">
          <mxGeometry x="1315" y="2690" width="60" height="80" as="geometry" />
        </mxCell>
        <mxCell id="-3HDc4S4cJgzG00HHfBd-14" style="edgeStyle=orthogonalEdgeStyle;rounded=0;orthogonalLoop=1;jettySize=auto;html=1;entryX=0;entryY=0.462;entryDx=0;entryDy=0;entryPerimeter=0;" edge="1" parent="1" target="-3HDc4S4cJgzG00HHfBd-2">
          <mxGeometry relative="1" as="geometry">
            <mxPoint x="1095" y="2640.0666666666666" as="sourcePoint" />
          </mxGeometry>
        </mxCell>
        <mxCell id="-3HDc4S4cJgzG00HHfBd-15" style="edgeStyle=orthogonalEdgeStyle;rounded=0;orthogonalLoop=1;jettySize=auto;html=1;entryX=0;entryY=0.654;entryDx=0;entryDy=0;entryPerimeter=0;" edge="1" parent="1" target="-3HDc4S4cJgzG00HHfBd-3">
          <mxGeometry relative="1" as="geometry">
            <mxPoint x="1095" y="2640.0666666666666" as="sourcePoint" />
          </mxGeometry>
        </mxCell>
        <mxCell id="-3HDc4S4cJgzG00HHfBd-16" style="edgeStyle=orthogonalEdgeStyle;rounded=0;orthogonalLoop=1;jettySize=auto;html=1;entryX=1;entryY=0.5;entryDx=0;entryDy=0;entryPerimeter=0;" edge="1" parent="1" source="-3HDc4S4cJgzG00HHfBd-2" target="-3HDc4S4cJgzG00HHfBd-8">
          <mxGeometry relative="1" as="geometry" />
        </mxCell>
        <mxCell id="-3HDc4S4cJgzG00HHfBd-17" style="edgeStyle=orthogonalEdgeStyle;rounded=0;orthogonalLoop=1;jettySize=auto;html=1;entryX=1;entryY=0.5;entryDx=0;entryDy=0;entryPerimeter=0;" edge="1" parent="1" source="-3HDc4S4cJgzG00HHfBd-3" target="-3HDc4S4cJgzG00HHfBd-8">
          <mxGeometry relative="1" as="geometry">
            <Array as="points">
              <mxPoint x="1485" y="2930" />
              <mxPoint x="1485" y="2420" />
            </Array>
          </mxGeometry>
        </mxCell>
        <mxCell id="-3HDc4S4cJgzG00HHfBd-18" value="Схема 5. Api-gatwway + service discovery" style="text;html=1;align=center;verticalAlign=middle;resizable=0;points=[];autosize=1;strokeColor=none;fillColor=none;" vertex="1" parent="1">
          <mxGeometry x="70" y="2220" width="250" height="30" as="geometry" />
        </mxCell>
        <mxCell id="-3HDc4S4cJgzG00HHfBd-19" value="Redis" style="shape=cylinder3;whiteSpace=wrap;html=1;boundedLbl=1;backgroundOutline=1;size=15;" vertex="1" parent="1">
          <mxGeometry x="900" y="2600" width="60" height="80" as="geometry" />
        </mxCell>
        <mxCell id="-3HDc4S4cJgzG00HHfBd-20" style="edgeStyle=orthogonalEdgeStyle;rounded=0;orthogonalLoop=1;jettySize=auto;html=1;entryX=0;entryY=0.5;entryDx=0;entryDy=0;entryPerimeter=0;" edge="1" parent="1" source="-3HDc4S4cJgzG00HHfBd-5" target="-3HDc4S4cJgzG00HHfBd-19">
          <mxGeometry relative="1" as="geometry" />
        </mxCell>
        <mxCell id="-3HDc4S4cJgzG00HHfBd-21" style="edgeStyle=orthogonalEdgeStyle;rounded=0;orthogonalLoop=1;jettySize=auto;html=1;entryX=0;entryY=0.5;entryDx=0;entryDy=0;entryPerimeter=0;" edge="1" parent="1" source="-3HDc4S4cJgzG00HHfBd-19" target="-3HDc4S4cJgzG00HHfBd-4">
          <mxGeometry relative="1" as="geometry" />
        </mxCell>
        <mxCell id="-3HDc4S4cJgzG00HHfBd-22" value="Slave" style="shape=cylinder3;whiteSpace=wrap;html=1;boundedLbl=1;backgroundOutline=1;size=15;" vertex="1" parent="1">
          <mxGeometry x="1240" y="2700" width="60" height="80" as="geometry" />
        </mxCell>
        <mxCell id="-3HDc4S4cJgzG00HHfBd-23" value="Slave" style="shape=cylinder3;whiteSpace=wrap;html=1;boundedLbl=1;backgroundOutline=1;size=15;" vertex="1" parent="1">
          <mxGeometry x="1325" y="2700" width="60" height="80" as="geometry" />
        </mxCell>
        <mxCell id="-3HDc4S4cJgzG00HHfBd-33" style="edgeStyle=orthogonalEdgeStyle;rounded=0;orthogonalLoop=1;jettySize=auto;html=1;" edge="1" parent="1" source="-3HDc4S4cJgzG00HHfBd-26">
          <mxGeometry relative="1" as="geometry">
            <mxPoint x="670" y="2435" as="targetPoint" />
          </mxGeometry>
        </mxCell>
        <mxCell id="-3HDc4S4cJgzG00HHfBd-26" value="APISIX Gateway" style="rounded=1;whiteSpace=wrap;html=1;" vertex="1" parent="1">
          <mxGeometry x="60" y="2400" width="190" height="70" as="geometry" />
        </mxCell>
        <mxCell id="-3HDc4S4cJgzG00HHfBd-29" style="edgeStyle=orthogonalEdgeStyle;rounded=0;orthogonalLoop=1;jettySize=auto;html=1;entryX=0.5;entryY=0;entryDx=0;entryDy=0;" edge="1" parent="1" source="-3HDc4S4cJgzG00HHfBd-27" target="-3HDc4S4cJgzG00HHfBd-28">
          <mxGeometry relative="1" as="geometry" />
        </mxCell>
        <mxCell id="-3HDc4S4cJgzG00HHfBd-32" value="получить список сервисов" style="edgeLabel;html=1;align=center;verticalAlign=middle;resizable=0;points=[];" vertex="1" connectable="0" parent="-3HDc4S4cJgzG00HHfBd-29">
          <mxGeometry x="-0.5122" relative="1" as="geometry">
            <mxPoint y="1" as="offset" />
          </mxGeometry>
        </mxCell>
        <mxCell id="-3HDc4S4cJgzG00HHfBd-27" value="consul_kv" style="rounded=1;whiteSpace=wrap;html=1;" vertex="1" parent="1">
          <mxGeometry x="70" y="2460" width="120" height="60" as="geometry" />
        </mxCell>
        <mxCell id="-3HDc4S4cJgzG00HHfBd-28" value="Consul" style="rounded=1;whiteSpace=wrap;html=1;" vertex="1" parent="1">
          <mxGeometry x="70" y="2680" width="120" height="60" as="geometry" />
        </mxCell>
        <mxCell id="-3HDc4S4cJgzG00HHfBd-58" style="edgeStyle=orthogonalEdgeStyle;rounded=0;orthogonalLoop=1;jettySize=auto;html=1;entryX=0.5;entryY=1;entryDx=0;entryDy=0;" edge="1" parent="1" source="-3HDc4S4cJgzG00HHfBd-35" target="-3HDc4S4cJgzG00HHfBd-28">
          <mxGeometry relative="1" as="geometry" />
        </mxCell>
        <mxCell id="-3HDc4S4cJgzG00HHfBd-59" value="регистрация" style="edgeLabel;html=1;align=center;verticalAlign=middle;resizable=0;points=[];" vertex="1" connectable="0" parent="-3HDc4S4cJgzG00HHfBd-58">
          <mxGeometry x="0.6323" y="1" relative="1" as="geometry">
            <mxPoint y="1" as="offset" />
          </mxGeometry>
        </mxCell>
        <mxCell id="-3HDc4S4cJgzG00HHfBd-35" value="service 2" style="rounded=0;whiteSpace=wrap;html=1;align=left;verticalAlign=top;" vertex="1" parent="1">
          <mxGeometry x="675" y="3220" width="860" height="800" as="geometry" />
        </mxCell>
        <mxCell id="-3HDc4S4cJgzG00HHfBd-36" value="replicaset" style="whiteSpace=wrap;html=1;aspect=fixed;verticalAlign=top;align=left;" vertex="1" parent="1">
          <mxGeometry x="1175" y="3390" width="260" height="260" as="geometry" />
        </mxCell>
        <mxCell id="-3HDc4S4cJgzG00HHfBd-37" value="replicaset" style="whiteSpace=wrap;html=1;aspect=fixed;align=left;verticalAlign=top;" vertex="1" parent="1">
          <mxGeometry x="1175" y="3670" width="260" height="260" as="geometry" />
        </mxCell>
        <mxCell id="-3HDc4S4cJgzG00HHfBd-38" value="MongoS&lt;div&gt;router&lt;/div&gt;" style="shape=cylinder3;whiteSpace=wrap;html=1;boundedLbl=1;backgroundOutline=1;size=15;" vertex="1" parent="1">
          <mxGeometry x="1030" y="3470" width="60" height="80" as="geometry" />
        </mxCell>
        <mxCell id="-3HDc4S4cJgzG00HHfBd-39" value="pymongo-api" style="rounded=1;whiteSpace=wrap;html=1;" vertex="1" parent="1">
          <mxGeometry x="700" y="3480" width="120" height="60" as="geometry" />
        </mxCell>
        <mxCell id="-3HDc4S4cJgzG00HHfBd-40" value="Mongod Shard-1-1&lt;div&gt;Master&lt;/div&gt;" style="shape=cylinder3;whiteSpace=wrap;html=1;boundedLbl=1;backgroundOutline=1;size=15;verticalAlign=top;" vertex="1" parent="1">
          <mxGeometry x="1235" y="3417" width="120" height="123" as="geometry" />
        </mxCell>
        <mxCell id="-3HDc4S4cJgzG00HHfBd-41" value="&lt;div style=&quot;&quot;&gt;&lt;span style=&quot;background-color: initial;&quot;&gt;Mongod Shard-1-2&lt;/span&gt;&lt;/div&gt;&lt;div style=&quot;&quot;&gt;Master&lt;br&gt;&lt;/div&gt;" style="shape=cylinder3;whiteSpace=wrap;html=1;boundedLbl=1;backgroundOutline=1;size=15;verticalAlign=top;" vertex="1" parent="1">
          <mxGeometry x="1245" y="3690" width="120" height="130" as="geometry" />
        </mxCell>
        <mxCell id="-3HDc4S4cJgzG00HHfBd-42" value="Config Server" style="shape=cylinder3;whiteSpace=wrap;html=1;boundedLbl=1;backgroundOutline=1;size=15;" vertex="1" parent="1">
          <mxGeometry x="1255" y="3240" width="90" height="100" as="geometry" />
        </mxCell>
        <mxCell id="-3HDc4S4cJgzG00HHfBd-43" style="edgeStyle=orthogonalEdgeStyle;rounded=0;orthogonalLoop=1;jettySize=auto;html=1;entryX=0;entryY=0.5;entryDx=0;entryDy=0;entryPerimeter=0;" edge="1" parent="1" target="-3HDc4S4cJgzG00HHfBd-42">
          <mxGeometry relative="1" as="geometry">
            <Array as="points">
              <mxPoint x="1065" y="3290" />
            </Array>
            <mxPoint x="1065" y="3470" as="sourcePoint" />
          </mxGeometry>
        </mxCell>
        <mxCell id="-3HDc4S4cJgzG00HHfBd-44" value="Slave" style="shape=cylinder3;whiteSpace=wrap;html=1;boundedLbl=1;backgroundOutline=1;size=15;" vertex="1" parent="1">
          <mxGeometry x="1235" y="3830" width="60" height="80" as="geometry" />
        </mxCell>
        <mxCell id="-3HDc4S4cJgzG00HHfBd-45" value="Slave" style="shape=cylinder3;whiteSpace=wrap;html=1;boundedLbl=1;backgroundOutline=1;size=15;" vertex="1" parent="1">
          <mxGeometry x="1315" y="3830" width="60" height="80" as="geometry" />
        </mxCell>
        <mxCell id="-3HDc4S4cJgzG00HHfBd-46" value="Slave" style="shape=cylinder3;whiteSpace=wrap;html=1;boundedLbl=1;backgroundOutline=1;size=15;" vertex="1" parent="1">
          <mxGeometry x="1230" y="3560" width="60" height="80" as="geometry" />
        </mxCell>
        <mxCell id="-3HDc4S4cJgzG00HHfBd-47" value="Slave" style="shape=cylinder3;whiteSpace=wrap;html=1;boundedLbl=1;backgroundOutline=1;size=15;" vertex="1" parent="1">
          <mxGeometry x="1315" y="3560" width="60" height="80" as="geometry" />
        </mxCell>
        <mxCell id="-3HDc4S4cJgzG00HHfBd-48" style="edgeStyle=orthogonalEdgeStyle;rounded=0;orthogonalLoop=1;jettySize=auto;html=1;entryX=0;entryY=0.462;entryDx=0;entryDy=0;entryPerimeter=0;" edge="1" parent="1" target="-3HDc4S4cJgzG00HHfBd-36">
          <mxGeometry relative="1" as="geometry">
            <mxPoint x="1095" y="3510.0666666666666" as="sourcePoint" />
          </mxGeometry>
        </mxCell>
        <mxCell id="-3HDc4S4cJgzG00HHfBd-49" style="edgeStyle=orthogonalEdgeStyle;rounded=0;orthogonalLoop=1;jettySize=auto;html=1;entryX=0;entryY=0.654;entryDx=0;entryDy=0;entryPerimeter=0;" edge="1" parent="1" target="-3HDc4S4cJgzG00HHfBd-37">
          <mxGeometry relative="1" as="geometry">
            <mxPoint x="1095" y="3510.0666666666666" as="sourcePoint" />
          </mxGeometry>
        </mxCell>
        <mxCell id="-3HDc4S4cJgzG00HHfBd-50" style="edgeStyle=orthogonalEdgeStyle;rounded=0;orthogonalLoop=1;jettySize=auto;html=1;entryX=1;entryY=0.5;entryDx=0;entryDy=0;entryPerimeter=0;" edge="1" parent="1" source="-3HDc4S4cJgzG00HHfBd-36" target="-3HDc4S4cJgzG00HHfBd-42">
          <mxGeometry relative="1" as="geometry" />
        </mxCell>
        <mxCell id="-3HDc4S4cJgzG00HHfBd-51" style="edgeStyle=orthogonalEdgeStyle;rounded=0;orthogonalLoop=1;jettySize=auto;html=1;entryX=1;entryY=0.5;entryDx=0;entryDy=0;entryPerimeter=0;" edge="1" parent="1" source="-3HDc4S4cJgzG00HHfBd-37" target="-3HDc4S4cJgzG00HHfBd-42">
          <mxGeometry relative="1" as="geometry">
            <Array as="points">
              <mxPoint x="1485" y="3800" />
              <mxPoint x="1485" y="3290" />
            </Array>
          </mxGeometry>
        </mxCell>
        <mxCell id="-3HDc4S4cJgzG00HHfBd-52" value="Redis" style="shape=cylinder3;whiteSpace=wrap;html=1;boundedLbl=1;backgroundOutline=1;size=15;" vertex="1" parent="1">
          <mxGeometry x="900" y="3470" width="60" height="80" as="geometry" />
        </mxCell>
        <mxCell id="-3HDc4S4cJgzG00HHfBd-53" style="edgeStyle=orthogonalEdgeStyle;rounded=0;orthogonalLoop=1;jettySize=auto;html=1;entryX=0;entryY=0.5;entryDx=0;entryDy=0;entryPerimeter=0;" edge="1" parent="1" source="-3HDc4S4cJgzG00HHfBd-39" target="-3HDc4S4cJgzG00HHfBd-52">
          <mxGeometry relative="1" as="geometry" />
        </mxCell>
        <mxCell id="-3HDc4S4cJgzG00HHfBd-54" style="edgeStyle=orthogonalEdgeStyle;rounded=0;orthogonalLoop=1;jettySize=auto;html=1;entryX=0;entryY=0.5;entryDx=0;entryDy=0;entryPerimeter=0;" edge="1" parent="1" source="-3HDc4S4cJgzG00HHfBd-52" target="-3HDc4S4cJgzG00HHfBd-38">
          <mxGeometry relative="1" as="geometry" />
        </mxCell>
        <mxCell id="-3HDc4S4cJgzG00HHfBd-55" value="Slave" style="shape=cylinder3;whiteSpace=wrap;html=1;boundedLbl=1;backgroundOutline=1;size=15;" vertex="1" parent="1">
          <mxGeometry x="1240" y="3570" width="60" height="80" as="geometry" />
        </mxCell>
        <mxCell id="-3HDc4S4cJgzG00HHfBd-56" value="Slave" style="shape=cylinder3;whiteSpace=wrap;html=1;boundedLbl=1;backgroundOutline=1;size=15;" vertex="1" parent="1">
          <mxGeometry x="1325" y="3570" width="60" height="80" as="geometry" />
        </mxCell>
        <mxCell id="-3HDc4S4cJgzG00HHfBd-61" style="edgeStyle=orthogonalEdgeStyle;rounded=0;orthogonalLoop=1;jettySize=auto;html=1;entryX=0;entryY=0.169;entryDx=0;entryDy=0;entryPerimeter=0;" edge="1" parent="1" source="-3HDc4S4cJgzG00HHfBd-26" target="-3HDc4S4cJgzG00HHfBd-35">
          <mxGeometry relative="1" as="geometry" />
        </mxCell>
        <mxCell id="-3HDc4S4cJgzG00HHfBd-62" style="edgeStyle=orthogonalEdgeStyle;rounded=0;orthogonalLoop=1;jettySize=auto;html=1;entryX=0;entryY=0;entryDx=0;entryDy=15;entryPerimeter=0;" edge="1" parent="1" source="-3HDc4S4cJgzG00HHfBd-4" target="-3HDc4S4cJgzG00HHfBd-38">
          <mxGeometry relative="1" as="geometry" />
        </mxCell>
        <mxCell id="-3HDc4S4cJgzG00HHfBd-63" style="edgeStyle=orthogonalEdgeStyle;rounded=0;orthogonalLoop=1;jettySize=auto;html=1;entryX=0.5;entryY=0;entryDx=0;entryDy=0;entryPerimeter=0;" edge="1" parent="1" source="-3HDc4S4cJgzG00HHfBd-19" target="-3HDc4S4cJgzG00HHfBd-52">
          <mxGeometry relative="1" as="geometry" />
        </mxCell>
        <mxCell id="-3HDc4S4cJgzG00HHfBd-64" style="edgeStyle=orthogonalEdgeStyle;rounded=0;orthogonalLoop=1;jettySize=auto;html=1;" edge="1" parent="1" source="-3HDc4S4cJgzG00HHfBd-66">
          <mxGeometry relative="1" as="geometry">
            <mxPoint x="2070" y="2980" as="targetPoint" />
            <Array as="points">
              <mxPoint x="2070" y="2981" />
            </Array>
          </mxGeometry>
        </mxCell>
        <mxCell id="-3HDc4S4cJgzG00HHfBd-65" value="регистрация" style="edgeLabel;html=1;align=center;verticalAlign=middle;resizable=0;points=[];" vertex="1" connectable="0" parent="-3HDc4S4cJgzG00HHfBd-64">
          <mxGeometry x="0.4013" y="2" relative="1" as="geometry">
            <mxPoint x="-1" y="-13" as="offset" />
          </mxGeometry>
        </mxCell>
        <mxCell id="-3HDc4S4cJgzG00HHfBd-66" value="service 1" style="rounded=0;whiteSpace=wrap;html=1;align=left;verticalAlign=top;" vertex="1" parent="1">
          <mxGeometry x="2545" y="2610" width="860" height="800" as="geometry" />
        </mxCell>
        <mxCell id="-3HDc4S4cJgzG00HHfBd-67" value="replicaset" style="whiteSpace=wrap;html=1;aspect=fixed;verticalAlign=top;align=left;" vertex="1" parent="1">
          <mxGeometry x="3045" y="2780" width="260" height="260" as="geometry" />
        </mxCell>
        <mxCell id="-3HDc4S4cJgzG00HHfBd-68" value="replicaset" style="whiteSpace=wrap;html=1;aspect=fixed;align=left;verticalAlign=top;" vertex="1" parent="1">
          <mxGeometry x="3045" y="3060" width="260" height="260" as="geometry" />
        </mxCell>
        <mxCell id="-3HDc4S4cJgzG00HHfBd-69" value="MongoS&lt;div&gt;router&lt;/div&gt;" style="shape=cylinder3;whiteSpace=wrap;html=1;boundedLbl=1;backgroundOutline=1;size=15;" vertex="1" parent="1">
          <mxGeometry x="2900" y="2860" width="60" height="80" as="geometry" />
        </mxCell>
        <mxCell id="-3HDc4S4cJgzG00HHfBd-70" value="pymongo-api" style="rounded=1;whiteSpace=wrap;html=1;" vertex="1" parent="1">
          <mxGeometry x="2570" y="2870" width="120" height="60" as="geometry" />
        </mxCell>
        <mxCell id="-3HDc4S4cJgzG00HHfBd-71" value="Mongod Shard-1-1&lt;div&gt;Master&lt;/div&gt;" style="shape=cylinder3;whiteSpace=wrap;html=1;boundedLbl=1;backgroundOutline=1;size=15;verticalAlign=top;" vertex="1" parent="1">
          <mxGeometry x="3105" y="2807" width="120" height="123" as="geometry" />
        </mxCell>
        <mxCell id="-3HDc4S4cJgzG00HHfBd-72" value="&lt;div style=&quot;&quot;&gt;&lt;span style=&quot;background-color: initial;&quot;&gt;Mongod Shard-1-2&lt;/span&gt;&lt;/div&gt;&lt;div style=&quot;&quot;&gt;Master&lt;br&gt;&lt;/div&gt;" style="shape=cylinder3;whiteSpace=wrap;html=1;boundedLbl=1;backgroundOutline=1;size=15;verticalAlign=top;" vertex="1" parent="1">
          <mxGeometry x="3115" y="3080" width="120" height="130" as="geometry" />
        </mxCell>
        <mxCell id="-3HDc4S4cJgzG00HHfBd-73" value="Config Server" style="shape=cylinder3;whiteSpace=wrap;html=1;boundedLbl=1;backgroundOutline=1;size=15;" vertex="1" parent="1">
          <mxGeometry x="3125" y="2630" width="90" height="100" as="geometry" />
        </mxCell>
        <mxCell id="-3HDc4S4cJgzG00HHfBd-74" style="edgeStyle=orthogonalEdgeStyle;rounded=0;orthogonalLoop=1;jettySize=auto;html=1;entryX=0;entryY=0.5;entryDx=0;entryDy=0;entryPerimeter=0;" edge="1" parent="1" target="-3HDc4S4cJgzG00HHfBd-73">
          <mxGeometry relative="1" as="geometry">
            <Array as="points">
              <mxPoint x="2935" y="2680" />
            </Array>
            <mxPoint x="2935" y="2860" as="sourcePoint" />
          </mxGeometry>
        </mxCell>
        <mxCell id="-3HDc4S4cJgzG00HHfBd-75" value="Slave" style="shape=cylinder3;whiteSpace=wrap;html=1;boundedLbl=1;backgroundOutline=1;size=15;" vertex="1" parent="1">
          <mxGeometry x="3105" y="3220" width="60" height="80" as="geometry" />
        </mxCell>
        <mxCell id="-3HDc4S4cJgzG00HHfBd-76" value="Slave" style="shape=cylinder3;whiteSpace=wrap;html=1;boundedLbl=1;backgroundOutline=1;size=15;" vertex="1" parent="1">
          <mxGeometry x="3185" y="3220" width="60" height="80" as="geometry" />
        </mxCell>
        <mxCell id="-3HDc4S4cJgzG00HHfBd-77" value="Slave" style="shape=cylinder3;whiteSpace=wrap;html=1;boundedLbl=1;backgroundOutline=1;size=15;" vertex="1" parent="1">
          <mxGeometry x="3100" y="2950" width="60" height="80" as="geometry" />
        </mxCell>
        <mxCell id="-3HDc4S4cJgzG00HHfBd-78" value="Slave" style="shape=cylinder3;whiteSpace=wrap;html=1;boundedLbl=1;backgroundOutline=1;size=15;" vertex="1" parent="1">
          <mxGeometry x="3185" y="2950" width="60" height="80" as="geometry" />
        </mxCell>
        <mxCell id="-3HDc4S4cJgzG00HHfBd-79" style="edgeStyle=orthogonalEdgeStyle;rounded=0;orthogonalLoop=1;jettySize=auto;html=1;entryX=0;entryY=0.462;entryDx=0;entryDy=0;entryPerimeter=0;" edge="1" parent="1" target="-3HDc4S4cJgzG00HHfBd-67">
          <mxGeometry relative="1" as="geometry">
            <mxPoint x="2965" y="2900.0666666666666" as="sourcePoint" />
          </mxGeometry>
        </mxCell>
        <mxCell id="-3HDc4S4cJgzG00HHfBd-80" style="edgeStyle=orthogonalEdgeStyle;rounded=0;orthogonalLoop=1;jettySize=auto;html=1;entryX=0;entryY=0.654;entryDx=0;entryDy=0;entryPerimeter=0;" edge="1" parent="1" target="-3HDc4S4cJgzG00HHfBd-68">
          <mxGeometry relative="1" as="geometry">
            <mxPoint x="2965" y="2900.0666666666666" as="sourcePoint" />
          </mxGeometry>
        </mxCell>
        <mxCell id="-3HDc4S4cJgzG00HHfBd-81" style="edgeStyle=orthogonalEdgeStyle;rounded=0;orthogonalLoop=1;jettySize=auto;html=1;entryX=1;entryY=0.5;entryDx=0;entryDy=0;entryPerimeter=0;" edge="1" parent="1" source="-3HDc4S4cJgzG00HHfBd-67" target="-3HDc4S4cJgzG00HHfBd-73">
          <mxGeometry relative="1" as="geometry" />
        </mxCell>
        <mxCell id="-3HDc4S4cJgzG00HHfBd-82" style="edgeStyle=orthogonalEdgeStyle;rounded=0;orthogonalLoop=1;jettySize=auto;html=1;entryX=1;entryY=0.5;entryDx=0;entryDy=0;entryPerimeter=0;" edge="1" parent="1" source="-3HDc4S4cJgzG00HHfBd-68" target="-3HDc4S4cJgzG00HHfBd-73">
          <mxGeometry relative="1" as="geometry">
            <Array as="points">
              <mxPoint x="3355" y="3190" />
              <mxPoint x="3355" y="2680" />
            </Array>
          </mxGeometry>
        </mxCell>
        <mxCell id="-3HDc4S4cJgzG00HHfBd-83" value="Схема 6. ALL + CDN" style="text;html=1;align=center;verticalAlign=middle;resizable=0;points=[];autosize=1;strokeColor=none;fillColor=none;" vertex="1" parent="1">
          <mxGeometry x="1900" y="2310" width="140" height="30" as="geometry" />
        </mxCell>
        <mxCell id="-3HDc4S4cJgzG00HHfBd-84" value="Redis" style="shape=cylinder3;whiteSpace=wrap;html=1;boundedLbl=1;backgroundOutline=1;size=15;" vertex="1" parent="1">
          <mxGeometry x="2770" y="2860" width="60" height="80" as="geometry" />
        </mxCell>
        <mxCell id="-3HDc4S4cJgzG00HHfBd-85" style="edgeStyle=orthogonalEdgeStyle;rounded=0;orthogonalLoop=1;jettySize=auto;html=1;entryX=0;entryY=0.5;entryDx=0;entryDy=0;entryPerimeter=0;" edge="1" parent="1" source="-3HDc4S4cJgzG00HHfBd-70" target="-3HDc4S4cJgzG00HHfBd-84">
          <mxGeometry relative="1" as="geometry" />
        </mxCell>
        <mxCell id="-3HDc4S4cJgzG00HHfBd-86" style="edgeStyle=orthogonalEdgeStyle;rounded=0;orthogonalLoop=1;jettySize=auto;html=1;entryX=0;entryY=0.5;entryDx=0;entryDy=0;entryPerimeter=0;" edge="1" parent="1" source="-3HDc4S4cJgzG00HHfBd-84" target="-3HDc4S4cJgzG00HHfBd-69">
          <mxGeometry relative="1" as="geometry" />
        </mxCell>
        <mxCell id="-3HDc4S4cJgzG00HHfBd-87" value="Slave" style="shape=cylinder3;whiteSpace=wrap;html=1;boundedLbl=1;backgroundOutline=1;size=15;" vertex="1" parent="1">
          <mxGeometry x="3110" y="2960" width="60" height="80" as="geometry" />
        </mxCell>
        <mxCell id="-3HDc4S4cJgzG00HHfBd-88" value="Slave" style="shape=cylinder3;whiteSpace=wrap;html=1;boundedLbl=1;backgroundOutline=1;size=15;" vertex="1" parent="1">
          <mxGeometry x="3195" y="2960" width="60" height="80" as="geometry" />
        </mxCell>
        <mxCell id="-3HDc4S4cJgzG00HHfBd-89" style="edgeStyle=orthogonalEdgeStyle;rounded=0;orthogonalLoop=1;jettySize=auto;html=1;" edge="1" parent="1" source="-3HDc4S4cJgzG00HHfBd-90">
          <mxGeometry relative="1" as="geometry">
            <mxPoint x="2540" y="2695" as="targetPoint" />
          </mxGeometry>
        </mxCell>
        <mxCell id="-3HDc4S4cJgzG00HHfBd-90" value="APISIX Gateway" style="rounded=1;whiteSpace=wrap;html=1;" vertex="1" parent="1">
          <mxGeometry x="1930" y="2660" width="190" height="70" as="geometry" />
        </mxCell>
        <mxCell id="-3HDc4S4cJgzG00HHfBd-91" style="edgeStyle=orthogonalEdgeStyle;rounded=0;orthogonalLoop=1;jettySize=auto;html=1;entryX=0.5;entryY=0;entryDx=0;entryDy=0;" edge="1" parent="1" source="-3HDc4S4cJgzG00HHfBd-93" target="-3HDc4S4cJgzG00HHfBd-94">
          <mxGeometry relative="1" as="geometry" />
        </mxCell>
        <mxCell id="-3HDc4S4cJgzG00HHfBd-92" value="получить список сервисов" style="edgeLabel;html=1;align=center;verticalAlign=middle;resizable=0;points=[];" vertex="1" connectable="0" parent="-3HDc4S4cJgzG00HHfBd-91">
          <mxGeometry x="-0.5122" relative="1" as="geometry">
            <mxPoint y="1" as="offset" />
          </mxGeometry>
        </mxCell>
        <mxCell id="-3HDc4S4cJgzG00HHfBd-93" value="consul_kv" style="rounded=1;whiteSpace=wrap;html=1;" vertex="1" parent="1">
          <mxGeometry x="1940" y="2720" width="120" height="60" as="geometry" />
        </mxCell>
        <mxCell id="-3HDc4S4cJgzG00HHfBd-94" value="Consul" style="rounded=1;whiteSpace=wrap;html=1;" vertex="1" parent="1">
          <mxGeometry x="1940" y="2940" width="120" height="60" as="geometry" />
        </mxCell>
        <mxCell id="-3HDc4S4cJgzG00HHfBd-95" style="edgeStyle=orthogonalEdgeStyle;rounded=0;orthogonalLoop=1;jettySize=auto;html=1;entryX=0.5;entryY=1;entryDx=0;entryDy=0;" edge="1" parent="1" source="-3HDc4S4cJgzG00HHfBd-97" target="-3HDc4S4cJgzG00HHfBd-94">
          <mxGeometry relative="1" as="geometry" />
        </mxCell>
        <mxCell id="-3HDc4S4cJgzG00HHfBd-96" value="регистрация" style="edgeLabel;html=1;align=center;verticalAlign=middle;resizable=0;points=[];" vertex="1" connectable="0" parent="-3HDc4S4cJgzG00HHfBd-95">
          <mxGeometry x="0.6323" y="1" relative="1" as="geometry">
            <mxPoint y="1" as="offset" />
          </mxGeometry>
        </mxCell>
        <mxCell id="-3HDc4S4cJgzG00HHfBd-97" value="service 2" style="rounded=0;whiteSpace=wrap;html=1;align=left;verticalAlign=top;" vertex="1" parent="1">
          <mxGeometry x="2545" y="3480" width="860" height="800" as="geometry" />
        </mxCell>
        <mxCell id="-3HDc4S4cJgzG00HHfBd-98" value="replicaset" style="whiteSpace=wrap;html=1;aspect=fixed;verticalAlign=top;align=left;" vertex="1" parent="1">
          <mxGeometry x="3045" y="3650" width="260" height="260" as="geometry" />
        </mxCell>
        <mxCell id="-3HDc4S4cJgzG00HHfBd-99" value="replicaset" style="whiteSpace=wrap;html=1;aspect=fixed;align=left;verticalAlign=top;" vertex="1" parent="1">
          <mxGeometry x="3045" y="3930" width="260" height="260" as="geometry" />
        </mxCell>
        <mxCell id="-3HDc4S4cJgzG00HHfBd-100" value="MongoS&lt;div&gt;router&lt;/div&gt;" style="shape=cylinder3;whiteSpace=wrap;html=1;boundedLbl=1;backgroundOutline=1;size=15;" vertex="1" parent="1">
          <mxGeometry x="2900" y="3730" width="60" height="80" as="geometry" />
        </mxCell>
        <mxCell id="-3HDc4S4cJgzG00HHfBd-101" value="pymongo-api" style="rounded=1;whiteSpace=wrap;html=1;" vertex="1" parent="1">
          <mxGeometry x="2570" y="3740" width="120" height="60" as="geometry" />
        </mxCell>
        <mxCell id="-3HDc4S4cJgzG00HHfBd-102" value="Mongod Shard-1-1&lt;div&gt;Master&lt;/div&gt;" style="shape=cylinder3;whiteSpace=wrap;html=1;boundedLbl=1;backgroundOutline=1;size=15;verticalAlign=top;" vertex="1" parent="1">
          <mxGeometry x="3105" y="3677" width="120" height="123" as="geometry" />
        </mxCell>
        <mxCell id="-3HDc4S4cJgzG00HHfBd-103" value="&lt;div style=&quot;&quot;&gt;&lt;span style=&quot;background-color: initial;&quot;&gt;Mongod Shard-1-2&lt;/span&gt;&lt;/div&gt;&lt;div style=&quot;&quot;&gt;Master&lt;br&gt;&lt;/div&gt;" style="shape=cylinder3;whiteSpace=wrap;html=1;boundedLbl=1;backgroundOutline=1;size=15;verticalAlign=top;" vertex="1" parent="1">
          <mxGeometry x="3115" y="3950" width="120" height="130" as="geometry" />
        </mxCell>
        <mxCell id="-3HDc4S4cJgzG00HHfBd-104" value="Config Server" style="shape=cylinder3;whiteSpace=wrap;html=1;boundedLbl=1;backgroundOutline=1;size=15;" vertex="1" parent="1">
          <mxGeometry x="3125" y="3500" width="90" height="100" as="geometry" />
        </mxCell>
        <mxCell id="-3HDc4S4cJgzG00HHfBd-105" style="edgeStyle=orthogonalEdgeStyle;rounded=0;orthogonalLoop=1;jettySize=auto;html=1;entryX=0;entryY=0.5;entryDx=0;entryDy=0;entryPerimeter=0;" edge="1" parent="1" target="-3HDc4S4cJgzG00HHfBd-104">
          <mxGeometry relative="1" as="geometry">
            <Array as="points">
              <mxPoint x="2935" y="3550" />
            </Array>
            <mxPoint x="2935" y="3730" as="sourcePoint" />
          </mxGeometry>
        </mxCell>
        <mxCell id="-3HDc4S4cJgzG00HHfBd-106" value="Slave" style="shape=cylinder3;whiteSpace=wrap;html=1;boundedLbl=1;backgroundOutline=1;size=15;" vertex="1" parent="1">
          <mxGeometry x="3105" y="4090" width="60" height="80" as="geometry" />
        </mxCell>
        <mxCell id="-3HDc4S4cJgzG00HHfBd-107" value="Slave" style="shape=cylinder3;whiteSpace=wrap;html=1;boundedLbl=1;backgroundOutline=1;size=15;" vertex="1" parent="1">
          <mxGeometry x="3185" y="4090" width="60" height="80" as="geometry" />
        </mxCell>
        <mxCell id="-3HDc4S4cJgzG00HHfBd-108" value="Slave" style="shape=cylinder3;whiteSpace=wrap;html=1;boundedLbl=1;backgroundOutline=1;size=15;" vertex="1" parent="1">
          <mxGeometry x="3100" y="3820" width="60" height="80" as="geometry" />
        </mxCell>
        <mxCell id="-3HDc4S4cJgzG00HHfBd-109" value="Slave" style="shape=cylinder3;whiteSpace=wrap;html=1;boundedLbl=1;backgroundOutline=1;size=15;" vertex="1" parent="1">
          <mxGeometry x="3185" y="3820" width="60" height="80" as="geometry" />
        </mxCell>
        <mxCell id="-3HDc4S4cJgzG00HHfBd-110" style="edgeStyle=orthogonalEdgeStyle;rounded=0;orthogonalLoop=1;jettySize=auto;html=1;entryX=0;entryY=0.462;entryDx=0;entryDy=0;entryPerimeter=0;" edge="1" parent="1" target="-3HDc4S4cJgzG00HHfBd-98">
          <mxGeometry relative="1" as="geometry">
            <mxPoint x="2965" y="3770.0666666666666" as="sourcePoint" />
          </mxGeometry>
        </mxCell>
        <mxCell id="-3HDc4S4cJgzG00HHfBd-111" style="edgeStyle=orthogonalEdgeStyle;rounded=0;orthogonalLoop=1;jettySize=auto;html=1;entryX=0;entryY=0.654;entryDx=0;entryDy=0;entryPerimeter=0;" edge="1" parent="1" target="-3HDc4S4cJgzG00HHfBd-99">
          <mxGeometry relative="1" as="geometry">
            <mxPoint x="2965" y="3770.0666666666666" as="sourcePoint" />
          </mxGeometry>
        </mxCell>
        <mxCell id="-3HDc4S4cJgzG00HHfBd-112" style="edgeStyle=orthogonalEdgeStyle;rounded=0;orthogonalLoop=1;jettySize=auto;html=1;entryX=1;entryY=0.5;entryDx=0;entryDy=0;entryPerimeter=0;" edge="1" parent="1" source="-3HDc4S4cJgzG00HHfBd-98" target="-3HDc4S4cJgzG00HHfBd-104">
          <mxGeometry relative="1" as="geometry" />
        </mxCell>
        <mxCell id="-3HDc4S4cJgzG00HHfBd-113" style="edgeStyle=orthogonalEdgeStyle;rounded=0;orthogonalLoop=1;jettySize=auto;html=1;entryX=1;entryY=0.5;entryDx=0;entryDy=0;entryPerimeter=0;" edge="1" parent="1" source="-3HDc4S4cJgzG00HHfBd-99" target="-3HDc4S4cJgzG00HHfBd-104">
          <mxGeometry relative="1" as="geometry">
            <Array as="points">
              <mxPoint x="3355" y="4060" />
              <mxPoint x="3355" y="3550" />
            </Array>
          </mxGeometry>
        </mxCell>
        <mxCell id="-3HDc4S4cJgzG00HHfBd-114" value="Redis" style="shape=cylinder3;whiteSpace=wrap;html=1;boundedLbl=1;backgroundOutline=1;size=15;" vertex="1" parent="1">
          <mxGeometry x="2770" y="3730" width="60" height="80" as="geometry" />
        </mxCell>
        <mxCell id="-3HDc4S4cJgzG00HHfBd-115" style="edgeStyle=orthogonalEdgeStyle;rounded=0;orthogonalLoop=1;jettySize=auto;html=1;entryX=0;entryY=0.5;entryDx=0;entryDy=0;entryPerimeter=0;" edge="1" parent="1" source="-3HDc4S4cJgzG00HHfBd-101" target="-3HDc4S4cJgzG00HHfBd-114">
          <mxGeometry relative="1" as="geometry" />
        </mxCell>
        <mxCell id="-3HDc4S4cJgzG00HHfBd-116" style="edgeStyle=orthogonalEdgeStyle;rounded=0;orthogonalLoop=1;jettySize=auto;html=1;entryX=0;entryY=0.5;entryDx=0;entryDy=0;entryPerimeter=0;" edge="1" parent="1" source="-3HDc4S4cJgzG00HHfBd-114" target="-3HDc4S4cJgzG00HHfBd-100">
          <mxGeometry relative="1" as="geometry" />
        </mxCell>
        <mxCell id="-3HDc4S4cJgzG00HHfBd-117" value="Slave" style="shape=cylinder3;whiteSpace=wrap;html=1;boundedLbl=1;backgroundOutline=1;size=15;" vertex="1" parent="1">
          <mxGeometry x="3110" y="3830" width="60" height="80" as="geometry" />
        </mxCell>
        <mxCell id="-3HDc4S4cJgzG00HHfBd-118" value="Slave" style="shape=cylinder3;whiteSpace=wrap;html=1;boundedLbl=1;backgroundOutline=1;size=15;" vertex="1" parent="1">
          <mxGeometry x="3195" y="3830" width="60" height="80" as="geometry" />
        </mxCell>
        <mxCell id="-3HDc4S4cJgzG00HHfBd-119" style="edgeStyle=orthogonalEdgeStyle;rounded=0;orthogonalLoop=1;jettySize=auto;html=1;entryX=0;entryY=0.169;entryDx=0;entryDy=0;entryPerimeter=0;" edge="1" parent="1" source="-3HDc4S4cJgzG00HHfBd-90" target="-3HDc4S4cJgzG00HHfBd-97">
          <mxGeometry relative="1" as="geometry" />
        </mxCell>
        <mxCell id="-3HDc4S4cJgzG00HHfBd-120" style="edgeStyle=orthogonalEdgeStyle;rounded=0;orthogonalLoop=1;jettySize=auto;html=1;entryX=0;entryY=0;entryDx=0;entryDy=15;entryPerimeter=0;" edge="1" parent="1" source="-3HDc4S4cJgzG00HHfBd-69" target="-3HDc4S4cJgzG00HHfBd-100">
          <mxGeometry relative="1" as="geometry" />
        </mxCell>
        <mxCell id="-3HDc4S4cJgzG00HHfBd-121" style="edgeStyle=orthogonalEdgeStyle;rounded=0;orthogonalLoop=1;jettySize=auto;html=1;entryX=0.5;entryY=0;entryDx=0;entryDy=0;entryPerimeter=0;" edge="1" parent="1" source="-3HDc4S4cJgzG00HHfBd-84" target="-3HDc4S4cJgzG00HHfBd-114">
          <mxGeometry relative="1" as="geometry" />
        </mxCell>
        <mxCell id="-3HDc4S4cJgzG00HHfBd-123" value="Регион 1" style="rounded=0;whiteSpace=wrap;html=1;align=left;verticalAlign=top;" vertex="1" parent="1">
          <mxGeometry x="2110" y="2130" width="450" height="250" as="geometry" />
        </mxCell>
        <mxCell id="-3HDc4S4cJgzG00HHfBd-130" style="edgeStyle=orthogonalEdgeStyle;rounded=0;orthogonalLoop=1;jettySize=auto;html=1;" edge="1" parent="1" source="-3HDc4S4cJgzG00HHfBd-125" target="-3HDc4S4cJgzG00HHfBd-128">
          <mxGeometry relative="1" as="geometry" />
        </mxCell>
        <mxCell id="-3HDc4S4cJgzG00HHfBd-131" style="edgeStyle=orthogonalEdgeStyle;rounded=0;orthogonalLoop=1;jettySize=auto;html=1;" edge="1" parent="1" source="-3HDc4S4cJgzG00HHfBd-125" target="-3HDc4S4cJgzG00HHfBd-127">
          <mxGeometry relative="1" as="geometry" />
        </mxCell>
        <mxCell id="-3HDc4S4cJgzG00HHfBd-125" value="CDN" style="rounded=1;whiteSpace=wrap;html=1;" vertex="1" parent="1">
          <mxGeometry x="2240" y="2260" width="120" height="60" as="geometry" />
        </mxCell>
        <mxCell id="-3HDc4S4cJgzG00HHfBd-126" value="Cache" style="rounded=1;whiteSpace=wrap;html=1;" vertex="1" parent="1">
          <mxGeometry x="2425" y="2290" width="120" height="60" as="geometry" />
        </mxCell>
        <mxCell id="-3HDc4S4cJgzG00HHfBd-127" value="Actor" style="shape=umlActor;verticalLabelPosition=bottom;verticalAlign=top;html=1;outlineConnect=0;" vertex="1" parent="1">
          <mxGeometry x="2200" y="2150" width="30" height="60" as="geometry" />
        </mxCell>
        <mxCell id="-3HDc4S4cJgzG00HHfBd-128" value="Actor" style="shape=umlActor;verticalLabelPosition=bottom;verticalAlign=top;html=1;outlineConnect=0;" vertex="1" parent="1">
          <mxGeometry x="2308" y="2150" width="30" height="60" as="geometry" />
        </mxCell>
        <mxCell id="-3HDc4S4cJgzG00HHfBd-132" value="Регион 2" style="rounded=0;whiteSpace=wrap;html=1;align=left;verticalAlign=top;" vertex="1" parent="1">
          <mxGeometry x="2710" y="2120" width="450" height="250" as="geometry" />
        </mxCell>
        <mxCell id="-3HDc4S4cJgzG00HHfBd-133" style="edgeStyle=orthogonalEdgeStyle;rounded=0;orthogonalLoop=1;jettySize=auto;html=1;" edge="1" parent="1" source="-3HDc4S4cJgzG00HHfBd-135" target="-3HDc4S4cJgzG00HHfBd-138">
          <mxGeometry relative="1" as="geometry" />
        </mxCell>
        <mxCell id="-3HDc4S4cJgzG00HHfBd-134" style="edgeStyle=orthogonalEdgeStyle;rounded=0;orthogonalLoop=1;jettySize=auto;html=1;" edge="1" parent="1" source="-3HDc4S4cJgzG00HHfBd-135" target="-3HDc4S4cJgzG00HHfBd-137">
          <mxGeometry relative="1" as="geometry" />
        </mxCell>
        <mxCell id="-3HDc4S4cJgzG00HHfBd-135" value="CDN" style="rounded=1;whiteSpace=wrap;html=1;" vertex="1" parent="1">
          <mxGeometry x="2840" y="2250" width="120" height="60" as="geometry" />
        </mxCell>
        <mxCell id="-3HDc4S4cJgzG00HHfBd-136" value="Cache" style="rounded=1;whiteSpace=wrap;html=1;" vertex="1" parent="1">
          <mxGeometry x="3025" y="2280" width="120" height="60" as="geometry" />
        </mxCell>
        <mxCell id="-3HDc4S4cJgzG00HHfBd-137" value="Actor" style="shape=umlActor;verticalLabelPosition=bottom;verticalAlign=top;html=1;outlineConnect=0;" vertex="1" parent="1">
          <mxGeometry x="2800" y="2140" width="30" height="60" as="geometry" />
        </mxCell>
        <mxCell id="-3HDc4S4cJgzG00HHfBd-138" value="Actor" style="shape=umlActor;verticalLabelPosition=bottom;verticalAlign=top;html=1;outlineConnect=0;" vertex="1" parent="1">
          <mxGeometry x="2908" y="2140" width="30" height="60" as="geometry" />
        </mxCell>
      </root>
    </mxGraphModel>
  </diagram>
</mxfile>
